<?xml version="1.0" standalone="no"?>
<!DOCTYPE svg PUBLIC "-//W3C//DTD SVG 20010904//EN"
 "http://www.w3.org/TR/2001/REC-SVG-20010904/DTD/svg10.dtd">
<svg version="1.0" xmlns="http://www.w3.org/2000/svg"
 width="900.000000pt" height="900.000000pt" viewBox="0 0 900.000000 900.000000"
 preserveAspectRatio="xMidYMid meet">
<metadata>
Created by potrace 1.11, written by Peter Selinger 2001-2013
</metadata>
<g transform="translate(0.000000,900.000000) scale(0.100000,-0.100000)"
fill="#000000" stroke="none">
<path d="M4210 7890 c-556 -53 -1061 -234 -1553 -557 -767 -504 -1291 -1311
-1447 -2228 -62 -362 -67 -800 -14 -1170 54 -379 189 -786 369 -1105 288 -512
756 -988 1269 -1289 359 -211 774 -350 1216 -406 299 -39 737 -28 1040 25 893
156 1685 661 2179 1390 319 471 504 984 566 1574 20 192 20 581 0 772 -122
1158 -776 2103 -1826 2634 -369 187 -709 293 -1110 346 -137 18 -556 26 -689
14z m-287 -1230 c122 -46 235 -161 272 -275 47 -145 13 -327 -91 -486 -16 -25
-15 -28 44 -148 84 -170 107 -265 106 -446 0 -123 -3 -149 -26 -216 -16 -49
-22 -82 -17 -92 5 -8 23 -68 41 -133 30 -114 32 -127 32 -299 -1 -162 -3 -190
-27 -279 -50 -188 -148 -348 -304 -496 -43 -41 -160 -144 -260 -228 -100 -84
-206 -179 -235 -211 -109 -121 -175 -274 -185 -428 l-6 -83 -144 0 -143 0 3
1613 c3 1781 -3 1636 66 1784 101 215 288 370 526 434 97 27 265 21 348 -11z
m1657 -407 c0 -75 19 -172 47 -243 48 -121 107 -196 332 -425 517 -526 651
-781 651 -1239 0 -164 -12 -250 -59 -429 -76 -292 -208 -553 -375 -742 l-45
-50 -95 94 -95 95 35 40 c96 112 189 280 244 443 106 319 66 663 -109 929 -63
95 -187 225 -286 299 -52 39 -222 135 -239 135 -3 0 -6 -465 -6 -1033 0 -1141
3 -1080 -65 -1224 -98 -209 -256 -349 -474 -423 -273 -92 -542 2 -652 226 -30
59 -34 79 -37 166 -4 85 -1 109 22 181 37 118 88 199 191 302 72 73 108 100
180 137 138 71 219 92 350 93 61 0 127 -4 148 -8 l37 -8 0 1366 0 1365 150 0
150 0 0 -47z"/>
<path d="M3790 5629 c-142 -73 -335 -100 -468 -65 l-52 13 0 -357 0 -358 68
15 c157 35 310 122 436 247 83 83 119 133 152 213 29 70 30 132 5 204 -23 66
-53 129 -60 128 -3 -1 -40 -19 -81 -40z"/>
<path d="M3930 4655 c-14 -15 -120 -108 -237 -206 -116 -99 -227 -198 -246
-222 -41 -50 -96 -137 -120 -190 l-17 -39 32 7 c57 12 181 63 248 102 85 49
253 218 302 301 40 71 71 179 66 236 l-3 38 -25 -27z"/>
</g>
</svg>
