<?xml version="1.0" encoding="utf-8"?>
<!-- Generator: Adobe Illustrator 16.0.0, SVG Export Plug-In . SVG Version: 6.00 Build 0)  -->
<!DOCTYPE svg PUBLIC "-//W3C//DTD SVG 1.1//EN" "http://www.w3.org/Graphics/SVG/1.1/DTD/svg11.dtd">
<svg version="1.1" id="Layer_1" xmlns="http://www.w3.org/2000/svg" xmlns:xlink="http://www.w3.org/1999/xlink" x="0px" y="0px"
	 width="4000px" height="1234.5px" viewBox="0 -234.5 4000 1234.5" enable-background="new 0 -234.5 4000 1234.5"
	 xml:space="preserve">
<g id="weiss">
	<path fill="#E61A6A" d="M2689.334,485.146c0,165.68-134.313,299.998-300,299.998c-165.683,0-300-134.317-300-299.998
		c0-165.688,134.317-300.002,300-300.002C2555.022,185.144,2689.334,319.458,2689.334,485.146z"/>
	<g>
		<path fill="#FFFFFF" stroke="#FFFFFF" stroke-width="2" stroke-miterlimit="10" d="M2477.668,603.154
			c0,8.383-2.664,16.889-7.988,25.518c-5.325,8.631-11.982,15.312-19.971,20.045c-9.863,5.82-19.381,8.729-28.553,8.729
			c-10.158,0-18.542-3.648-25.147-10.947c-4.638-5.127-6.953-11.242-6.953-18.344c0-7.89,2.717-15.978,8.149-24.263
			c5.235-7.889,11.809-14.102,19.713-18.639c9.879-5.719,19.658-8.58,29.342-8.58c11.165,0,19.66,3.846,25.49,11.539V335.69h6.213
			c0,4.538,1.084,10.011,3.256,16.421c4.238,12.329,11.586,23.424,22.041,33.285c24.457,23.077,41.914,43.196,52.368,60.356
			c9.27,15.288,13.906,32.941,13.906,52.96c0,7.596-0.644,14.646-1.924,21.154c-6.018,30.178-16.372,54.145-31.065,71.896
			l-1.774-1.774c4.412-5.127,8.973-12.523,13.682-22.191c8.335-17.354,12.503-34.813,12.503-52.367
			c0-13.905-2.714-27.368-8.137-40.386c-6.51-15.582-17.038-29.339-31.584-41.273c-14.549-11.932-29.068-18.885-43.566-20.857
			V603.154L2477.668,603.154z"/>
	</g>
	<g>
		<path fill="#FFFFFF" stroke="#FFFFFF" stroke-width="2" stroke-miterlimit="10" d="M2362.731,460.657
			c1.281,5.817,1.924,12.031,1.924,18.64c0,17.652-4.586,33.137-13.758,46.451c-4.934,7.197-13.414,15.877-25.445,26.035
			c-17.654,14.793-26.628,22.338-26.924,22.635c-13.905,13.215-22.042,28.994-24.409,47.338v0.887h-0.146h-4.438V355.181
			c0-8.381,2.663-16.888,7.989-25.519c5.325-8.628,11.981-15.311,19.971-20.045c9.86-5.818,19.379-8.728,28.552-8.728
			c10.156,0,18.539,3.65,25.147,10.947c4.635,5.129,6.953,11.243,6.953,18.344c0,7.892-2.714,15.977-8.136,24.261
			c-5.229,7.892-11.786,14.104-19.677,18.64c-9.565,5.622-19.183,8.432-28.847,8.432c-11.639,0-20.762-4.19-27.368-12.574v95.269
			c23.768-0.199,44.528-8.927,62.28-26.184c12.819-12.428,19.23-24.904,19.23-37.427c0-7.792-4.488-19.527-13.461-35.208
			l2.219-1.775c7.197,11.243,11.835,20.315,13.906,27.22c2.464,8.284,3.697,15.778,3.697,22.486c0,8.876-2.07,17.357-6.214,25.445
			C2358.539,445.173,2360.857,452.47,2362.731,460.657z M2353.264,443.349c-5.229,8.58-13.758,17.85-25.592,27.812
			c-9.668,8.085-19.381,16.222-29.145,24.409c-13.905,13.313-22.042,29.091-24.409,47.339c32.644-2.861,57.349-17.113,74.115-42.753
			c5.719-8.779,8.58-19.874,8.58-33.285C2356.814,458.29,2355.631,450.45,2353.264,443.349z"/>
	</g>
	<g>
		<g>
			<path fill="#FFFFFF" d="M1704.707,229.271v-62.312h348.773v62.312h-141.932v574.221h-64.908V229.271H1704.707z"/>
			<path fill="#FFFFFF" d="M2381.873,150.948c96.408,0,177.091,32.17,242.039,96.497c64.948,64.333,97.431,143.521,97.431,237.564
				c0,93.186-32.406,172.225-97.214,237.132c-64.808,64.908-143.825,97.361-237.063,97.361c-94.394,0-174.067-32.305-239.019-96.93
				c-64.947-64.617-97.423-142.797-97.423-234.534c0-61.156,14.794-117.842,44.382-170.06
				c29.588-52.21,69.925-93.103,121.021-122.676C2267.121,165.735,2322.401,150.948,2381.873,150.948z M2384.686,212.827
				c-47.1,0-91.743,12.272-133.927,36.815c-42.19,24.543-75.132,57.599-98.823,99.167c-23.691,41.575-35.537,87.91-35.537,139.012
				c0,75.645,26.221,139.525,78.661,191.635c52.439,52.115,115.651,78.166,189.626,78.166c49.404,0,95.131-11.98,137.173-35.943
				c42.042-23.961,74.834-56.727,98.383-98.301c23.55-41.576,35.328-87.77,35.328-138.586c0-50.52-11.778-96.213-35.328-137.064
				c-23.549-40.852-56.706-73.542-99.465-98.085C2478.012,225.099,2432.65,212.827,2384.686,212.827z"/>
			<path fill="#FFFFFF" d="M2796.254,803.492V166.959h13.849l423.634,487.934V166.959h62.744v636.533h-14.279l-420.173-481.998
				v481.998H2796.254z"/>
			<path fill="#FFFFFF" d="M3407.517,166.959h364.784v62.312h-301.174v199.484h298.576v62.313h-298.576V741.18h298.576v62.313
				h-362.188L3407.517,166.959L3407.517,166.959z"/>
		</g>
	</g>
	<g>
		<path fill="#FFFFFF" stroke="#FFFFFF" stroke-width="9" stroke-miterlimit="10" d="M405.54,162.657
			c64.273,0,118.062,21.447,161.36,64.331c43.299,42.889,64.954,95.681,64.954,158.376c0,62.123-21.604,114.814-64.809,158.087
			c-43.205,43.272-95.885,64.908-158.042,64.908c-62.93,0-116.046-21.537-159.345-64.619c-43.3-43.079-64.949-95.199-64.949-156.357
			c0-40.77,9.861-78.561,29.587-113.373c19.725-34.807,46.617-62.069,80.68-81.785C329.038,172.515,365.893,162.657,405.54,162.657z
			 M407.415,203.91c-31.398,0-61.161,8.181-89.284,24.543c-28.127,16.362-50.087,38.399-65.882,66.112
			c-15.794,27.717-23.691,58.606-23.691,92.674c0,50.43,17.48,93.017,52.44,127.757c34.959,34.744,77.101,52.111,126.416,52.111
			c32.938,0,63.422-7.988,91.449-23.963c28.028-15.976,49.89-37.818,65.589-65.534c15.7-27.718,23.553-58.512,23.553-92.391
			c0-33.68-7.853-64.142-23.553-91.376c-15.699-27.234-37.805-49.028-66.31-65.391C469.633,212.091,439.392,203.91,407.415,203.91z"
			/>
		<path fill="#FFFFFF" stroke="#FFFFFF" stroke-width="9" stroke-miterlimit="10" d="M706.293,173.331h83.658
			c33.653,0,59.522,3.994,77.603,11.972c18.075,7.983,32.354,20.243,42.839,36.781c10.479,16.542,15.722,34.906,15.722,55.1
			c0,18.85-4.593,36.015-13.778,51.494c-9.188,15.483-22.683,28.032-40.479,37.646c22.051,7.5,39.018,16.299,50.908,26.396
			c11.886,10.097,21.136,22.313,27.753,36.638c6.617,14.329,9.925,29.857,9.925,46.59c0,34.041-12.454,62.844-37.357,86.399
			c-24.909,23.562-58.323,35.338-100.247,35.338H706.293V173.331z M747.834,214.872v135.875h24.281
			c29.488,0,51.169-2.741,65.048-8.222c13.874-5.481,24.863-14.136,32.959-25.963c8.096-11.828,12.144-24.954,12.144-39.377
			c0-19.423-6.797-34.663-20.383-45.725c-13.585-11.057-35.223-16.587-64.904-16.587L747.834,214.872L747.834,214.872z
			 M747.834,393.441v162.704h52.594c31.016,0,53.748-3.029,68.199-9.087c14.446-6.059,26.053-15.528,34.82-28.416
			c8.762-12.883,13.148-26.828,13.148-41.829c0-18.847-6.162-35.289-18.485-49.33c-12.324-14.038-29.263-23.655-50.827-28.849
			c-14.456-3.462-39.606-5.193-75.456-5.193H747.834z"/>
		<path fill="#FFFFFF" stroke="#FFFFFF" stroke-width="9" stroke-miterlimit="10" d="M1038.773,173.331h243.188v41.542H1081.18
			v132.99h199.052v41.541H1081.18v166.743h199.052v41.541h-241.458L1038.773,173.331L1038.773,173.331z"/>
		<path fill="#FFFFFF" stroke="#FFFFFF" stroke-width="9" stroke-miterlimit="10" d="M1364.634,173.331h84.524
			c47.117,0,79.044,1.93,95.776,5.779c25.192,5.779,45.674,18.147,61.446,37.115c15.767,18.968,23.654,42.317,23.654,70.047
			c0,23.11-5.436,43.425-16.299,60.946c-10.866,17.525-26.396,30.764-46.589,39.715c-20.193,8.957-48.082,13.532-83.66,13.721
			l152.606,197.032h-52.463l-152.615-197.031h-23.976v197.031h-42.407L1364.634,173.331L1364.634,173.331z M1407.041,214.872v144.24
			l73.103,0.582c28.316,0,49.262-2.691,62.844-8.078c13.581-5.382,24.179-13.991,31.787-25.819
			c7.609-11.828,11.413-25.048,11.413-39.67c0-14.23-3.854-27.163-11.557-38.801c-7.708-11.634-17.818-19.95-30.34-24.954
			c-12.522-4.999-33.329-7.5-62.411-7.5H1407.041z"/>
	</g>
	<g>
		<path fill="#FFFFFF" d="M217.21,772.111V648.93h20.024v50.99l44.258-50.99h24.484l-48.801,54.775l54.606,68.406h-25.83
			l-48.718-62.937v62.937H217.21z"/>
		<path fill="#FFFFFF" d="M394.577,772.111h-18.259v-10.351c-3.254,4.603-7.055,8.023-11.4,10.267
			c-4.349,2.244-9.326,3.364-14.936,3.364c-11.273,0-20.151-3.854-26.63-11.567c-6.479-7.713-9.718-18.271-9.718-31.68
			c0-12.732,3.309-23.013,9.928-30.837c6.618-7.825,15.257-11.737,25.916-11.737c6.506,0,12.074,1.36,16.702,4.08
			c4.627,2.723,8.006,6.635,10.139,11.737v-13.041h18.259L394.577,772.111L394.577,772.111z M376.823,731.977
			c0-8.245-1.922-14.668-5.764-19.268c-3.843-4.6-9.213-6.9-16.113-6.9c-6.899,0-12.327,2.371-16.281,7.111
			c-3.953,4.74-5.932,11.316-5.932,19.73c0,8.471,1.906,15.006,5.722,19.604c3.814,4.602,9.199,6.9,16.155,6.9
			c6.563,0,11.906-2.496,16.029-7.488C374.762,746.674,376.823,740.111,376.823,731.977z"/>
		<path fill="#FFFFFF" d="M438.077,772.111H419.82v-79.765h17.165v13.041c3.646-5.553,7.783-9.604,12.411-12.157
			c4.628-2.554,10.083-3.828,16.365-3.828c6.227,0,11.387,1.305,15.481,3.912c4.095,2.606,7.207,6.577,9.339,11.905
			c4.207-5.498,8.681-9.508,13.421-12.032c4.739-2.523,10.139-3.785,16.196-3.785c5.272,0,9.872,0.967,13.8,2.901
			c3.926,1.937,6.982,4.754,9.171,8.457c1.01,1.738,1.752,3.814,2.229,6.226c0.477,2.414,0.715,5.862,0.715,10.35v6.395v48.382
			h-18.258v-40.978c0-10.713-1.136-17.766-3.408-21.16c-2.271-3.395-6.325-5.092-12.157-5.092c-7.182,0-12.3,2.287-15.356,6.857
			c-3.058,4.574-4.585,12.58-4.585,24.022v36.349h-18.427v-40.978c0-9.871-1.192-16.715-3.576-20.528
			c-2.385-3.814-6.494-5.724-12.327-5.724c-3.59,0-6.872,0.814-9.845,2.441c-2.975,1.627-5.33,3.869-7.067,6.729
			c-1.123,1.853-1.908,4.123-2.355,6.816c-0.45,2.69-0.674,7.656-0.674,14.893L438.077,772.111L438.077,772.111z"/>
		<path fill="#FFFFFF" d="M588.857,772.111h-18.258v-79.765h17.165v13.041c3.646-5.553,7.783-9.604,12.411-12.157
			c4.628-2.554,10.083-3.828,16.364-3.828c6.228,0,11.388,1.305,15.482,3.912c4.094,2.606,7.207,6.577,9.339,11.905
			c4.207-5.498,8.68-9.508,13.42-12.032c4.74-2.523,10.14-3.785,16.197-3.785c5.271,0,9.872,0.967,13.799,2.901
			c3.926,1.937,6.983,4.754,9.171,8.457c1.01,1.738,1.752,3.814,2.229,6.226c0.476,2.414,0.715,5.862,0.715,10.35v6.395v48.382
			h-18.258v-40.978c0-10.713-1.136-17.766-3.408-21.16s-6.325-5.092-12.158-5.092c-7.181,0-12.299,2.287-15.355,6.857
			c-3.059,4.574-4.585,12.58-4.585,24.022v36.349h-18.428v-40.978c0-9.871-1.191-16.715-3.576-20.528
			c-2.385-3.814-6.493-5.724-12.326-5.724c-3.591,0-6.872,0.814-9.846,2.441s-5.33,3.869-7.066,6.729
			c-1.123,1.853-1.908,4.123-2.356,6.816c-0.45,2.69-0.673,7.656-0.673,14.893L588.857,772.111L588.857,772.111z"/>
		<path fill="#FFFFFF" d="M798.198,734.922H734.42c0.447,7.461,2.664,13.281,6.646,17.459c3.982,4.18,9.283,6.269,15.902,6.269
			c5.89,0,10.797-1.232,14.725-3.701c3.925-2.467,7.348-6.449,10.265-11.947l15.397,8.582c-4.488,8.021-10.042,13.996-16.66,17.922
			c-6.62,3.926-14.388,5.889-23.307,5.889c-12.789,0-22.971-3.896-30.542-11.694c-7.573-7.795-11.359-18.201-11.359-31.215
			c0-12.509,3.912-22.789,11.737-30.839c7.825-8.049,17.88-12.073,30.164-12.073c12.845,0,22.856,3.674,30.038,11.021
			c7.18,7.351,10.77,17.644,10.77,30.881L798.198,734.922L798.198,734.922z M779.266,722.637
			c-0.729-5.721-2.917-10.082-6.563-13.084c-3.646-3-8.639-4.5-14.977-4.5c-6.003,0-10.827,1.459-14.472,4.375
			c-3.647,2.916-6.199,7.32-7.657,13.209H779.266z"/>
		<path fill="#FFFFFF" d="M835.472,705.053c1.963-5.272,4.557-9.172,7.783-11.694c3.225-2.525,7.221-3.787,11.989-3.787
			c2.58,0,5.118,0.309,7.615,0.926c2.495,0.617,4.95,1.514,7.362,2.69l-6.563,15.482c-1.57-1.121-3.268-1.947-5.09-2.482
			c-1.824-0.53-3.856-0.799-6.1-0.799c-6.059,0-10.406,2.429-13.042,7.277c-2.638,4.854-3.955,13-3.955,24.443v35.002h-18.258
			v-79.935h18.258V705.053z"/>
		<path fill="#FFFFFF" d="M898.913,772.111h-18.258v-79.765h17.165v13.041c3.646-5.553,7.783-9.604,12.411-12.157
			c4.628-2.554,10.083-3.828,16.365-3.828c6.227,0,11.387,1.305,15.481,3.912c4.095,2.606,7.207,6.577,9.34,11.905
			c4.206-5.498,8.68-9.508,13.42-12.032c4.739-2.523,10.139-3.785,16.196-3.785c5.272,0,9.872,0.967,13.8,2.901
			c3.926,1.937,6.982,4.754,9.171,8.457c1.01,1.738,1.752,3.814,2.229,6.226c0.477,2.414,0.715,5.862,0.715,10.35v6.395v48.382
			h-18.258v-40.978c0-10.713-1.136-17.766-3.408-21.16c-2.271-3.395-6.325-5.092-12.157-5.092c-7.182,0-12.3,2.287-15.356,6.857
			c-3.058,4.574-4.585,12.58-4.585,24.022v36.349h-18.427v-40.978c0-9.871-1.192-16.715-3.576-20.528
			c-2.385-3.814-6.494-5.724-12.327-5.724c-3.59,0-6.872,0.814-9.845,2.441c-2.975,1.627-5.33,3.869-7.067,6.729
			c-1.123,1.853-1.908,4.123-2.355,6.816c-0.45,2.69-0.674,7.656-0.674,14.893L898.913,772.111L898.913,772.111z"/>
		<path fill="#FFFFFF" d="M1049.104,692.348v44.931c0,7.741,1.599,13.295,4.796,16.659c3.197,3.365,8.385,5.05,15.566,5.05
			c7.18,0,12.369-1.685,15.565-5.05c3.197-3.364,4.797-8.918,4.797-16.659v-44.931h18.259v39.461
			c0,15.259-3.059,26.336-9.171,33.236c-6.115,6.898-15.875,10.348-29.281,10.348c-13.631,0-23.504-3.42-29.618-10.264
			s-9.171-17.951-9.171-33.32v-39.461H1049.104L1049.104,692.348z"/>
		<path fill="#FFFFFF" d="M1123.568,757.641l15.146-8.246c1.12,3.982,3.196,7.013,6.226,9.087c3.029,2.075,6.927,3.112,11.696,3.112
			c4.094,0,7.306-0.938,9.634-2.817c2.327-1.88,3.492-4.445,3.492-7.699c0-4.318-4.152-8.021-12.453-11.105
			c-2.807-1.01-4.964-1.852-6.479-2.524c-8.526-3.533-14.485-7.123-17.879-10.771c-3.395-3.645-5.091-8.076-5.091-13.293
			c0-7.123,2.79-12.901,8.372-17.334c5.581-4.43,12.971-6.646,22.171-6.646c6.17,0,11.457,1.135,15.86,3.408
			c4.402,2.271,7.614,5.51,9.634,9.717l-12.958,8.92c-0.955-2.525-2.623-4.529-5.006-6.017c-2.385-1.485-5.147-2.229-8.288-2.229
			c-3.479,0-6.268,0.828-8.372,2.481c-2.104,1.654-3.155,3.857-3.155,6.605c0,4.15,4.711,7.938,14.136,11.356
			c2.973,1.066,5.271,1.937,6.898,2.609c7.349,2.916,12.607,6.213,15.776,9.887c3.168,3.675,4.754,8.261,4.754,13.757
			c0,7.967-2.89,14.206-8.667,18.721c-5.778,4.516-13.744,6.772-23.896,6.772c-7.798,0-14.276-1.459-19.438-4.375
			C1130.523,768.102,1126.484,763.643,1123.568,757.641z"/>
		<path fill="#FFFFFF" d="M1204.511,657.85c0-3.084,1.136-5.75,3.407-7.994c2.271-2.241,4.978-3.364,8.12-3.364
			c3.252,0,5.959,1.08,8.119,3.239c2.159,2.16,3.24,4.867,3.24,8.119c0,3.254-1.094,5.988-3.282,8.203
			c-2.188,2.217-4.88,3.324-8.077,3.324c-3.143,0-5.848-1.137-8.12-3.408C1205.647,663.697,1204.511,660.992,1204.511,657.85z
			 M1206.95,772.111v-79.765h18.259v79.765H1206.95z"/>
		<path fill="#FFFFFF" d="M1251.293,772.111V641.695h18.258v83.719l33.404-33.066h22.549l-36.181,35.17l39.63,44.595h-23.559
			l-35.844-41.146v41.146L1251.293,772.111L1251.293,772.111z"/>
		<path fill="#FFFFFF" d="M1344.52,772.111v-63.777h-13.967v-15.986h13.967v-30.207h18.258v30.207h13.967v15.986h-13.967v63.777
			H1344.52z"/>
		<path fill="#FFFFFF" d="M1467.532,772.111h-18.259v-10.351c-3.254,4.603-7.055,8.023-11.401,10.267
			c-4.348,2.244-9.325,3.364-14.935,3.364c-11.274,0-20.151-3.854-26.63-11.567c-6.479-7.713-9.718-18.271-9.718-31.68
			c0-12.732,3.309-23.013,9.928-30.837c6.618-7.825,15.257-11.737,25.916-11.737c6.506,0,12.074,1.36,16.702,4.08
			c4.627,2.723,8.006,6.635,10.139,11.737v-13.041h18.259L1467.532,772.111L1467.532,772.111z M1449.779,731.977
			c0-8.245-1.922-14.668-5.764-19.268c-3.843-4.6-9.213-6.9-16.113-6.9c-6.899,0-12.327,2.371-16.281,7.111
			s-5.932,11.316-5.932,19.73c0,8.471,1.906,15.006,5.722,19.604c3.814,4.602,9.199,6.9,16.155,6.9
			c6.563,0,11.906-2.496,16.029-7.488S1449.779,740.111,1449.779,731.977z"/>
		<path fill="#FFFFFF" d="M1567.827,767.148c0,15.592-3.112,26.571-9.34,32.938c-6.226,6.367-16.716,9.551-31.468,9.551
			c-10.995,0-19.773-2.313-26.336-6.94c-6.563-4.629-9.901-10.785-10.013-18.469l19.604-0.084c0.28,3.42,1.879,6.028,4.796,7.823
			c2.916,1.795,7.012,2.693,12.285,2.693c7.796,0,13.406-1.713,16.828-5.133c3.421-3.422,5.16-9.146,5.217-17.166l0.168-10.603
			c-3.254,4.603-7.055,8.023-11.4,10.267c-4.349,2.244-9.326,3.364-14.936,3.364c-11.273,0-20.15-3.854-26.63-11.567
			s-9.718-18.271-9.718-31.681c0-12.731,3.309-23.012,9.928-30.836c6.618-7.825,15.257-11.737,25.916-11.737
			c6.506,0,12.074,1.36,16.702,4.08c4.627,2.723,8.006,6.635,10.139,11.737v-13.041h18.259L1567.827,767.148L1567.827,767.148z
			 M1550.073,731.977c0-8.245-1.922-14.668-5.764-19.268c-3.843-4.6-9.213-6.9-16.113-6.9c-6.899,0-12.327,2.371-16.281,7.111
			s-5.932,11.316-5.932,19.73c0,8.471,1.906,15.006,5.722,19.604c3.814,4.602,9.199,6.9,16.155,6.9
			c6.563,0,11.906-2.496,16.029-7.488S1550.073,740.111,1550.073,731.977z"/>
		<path fill="#FFFFFF" d="M1669.89,734.922h-63.778c0.448,7.461,2.664,13.281,6.647,17.459c3.981,4.18,9.282,6.269,15.901,6.269
			c5.891,0,10.797-1.232,14.726-3.701c3.925-2.467,7.348-6.449,10.265-11.947l15.397,8.582c-4.488,8.021-10.042,13.996-16.66,17.922
			c-6.62,3.926-14.388,5.889-23.308,5.889c-12.789,0-22.97-3.896-30.542-11.694c-7.572-7.795-11.358-18.201-11.358-31.215
			c0-12.509,3.912-22.789,11.736-30.839c7.825-8.049,17.881-12.073,30.164-12.073c12.846,0,22.857,3.674,30.038,11.021
			c7.181,7.351,10.771,17.644,10.771,30.881L1669.89,734.922L1669.89,734.922z M1650.957,722.637
			c-0.729-5.721-2.916-10.082-6.563-13.084c-3.646-3-8.639-4.5-14.977-4.5c-6.004,0-10.827,1.459-14.473,4.375
			c-3.646,2.916-6.199,7.32-7.657,13.209H1650.957z"/>
	</g>
	
		<rect id="Linie_2_" x="207.787" y="692.246" display="none" fill="#FFFFFF" stroke="#FFFFFF" stroke-width="2" stroke-miterlimit="10" width="1465.213" height="49.229"/>
</g>
<g id="guidelines">
</g>
<g>
	<path fill="#D6AE8C" d="M1636.094,44.492c0,9.354-7.653,17.008-17.008,17.008H132.139c-9.354,0-17.008-7.653-17.008-17.008
		v-261.984c0-9.354,7.653-17.008,17.008-17.008h1486.947c9.354,0,17.008,7.653,17.008,17.008V44.492z"/>
</g>
<g>
	<path fill="#FFFFFF" d="M271.716-115.726h-22.56v-45.736H325.9v149.365h-54.184V-115.726z"/>
	<path fill="#FFFFFF" d="M376.81-86.367c0-24.241,5.785-43.316,17.357-57.223c11.571-13.906,27.417-20.859,47.54-20.859
		c20.258,0,36.121,6.901,47.591,20.705c11.468,13.803,17.203,32.93,17.203,57.377c0,24.449-5.734,43.609-17.203,57.48
		c-11.47,13.873-27.333,20.808-47.591,20.808c-20.053,0-35.883-7.005-47.488-21.014C382.612-43.103,376.81-62.194,376.81-86.367z
		 M429.551-86.367c0,10.852,0.979,18.799,2.936,23.847c1.957,5.048,5.03,7.571,9.219,7.571c4.188,0,7.245-2.488,9.168-7.468
		c1.922-4.978,2.884-12.961,2.884-23.95c0-10.919-0.962-18.885-2.884-23.898c-1.923-5.012-4.98-7.52-9.168-7.52
		c-4.259,0-7.349,2.472-9.271,7.417C430.512-105.424,429.551-97.423,429.551-86.367z"/>
	<path fill="#FFFFFF" d="M669.73-79.569v-83.335h54.287v98.066c0,8.516-0.566,15.211-1.7,20.087
		c-1.133,4.877-2.971,9.374-5.511,13.494c-4.602,7.349-10.783,13.049-18.542,17.1c-7.761,4.051-16.414,6.078-25.959,6.078
		c-8.997,0-17.22-1.339-24.671-4.018c-7.452-2.678-14.542-6.833-21.271-12.464l17.718-40.483c3.158,3.365,5.975,5.82,8.447,7.365
		c2.472,1.545,4.841,2.317,7.108,2.317c3.914,0,6.575-1.476,7.983-4.429C669.025-62.743,669.73-69.335,669.73-79.569z"/>
	<path fill="#FFFFFF" d="M748.981-12.097l53.771-150.808h60.364l52.742,150.808h-58.304l-4.842-18.954h-40.895l-4.635,18.954
		H748.981z M820.883-66.898h22.56l-4.636-17.1c-2.266-8.653-3.812-15.313-4.635-19.984c-0.824-4.669-1.339-9.065-1.545-13.186
		h-0.927c-0.206,4.121-0.721,8.516-1.545,13.186c-0.824,4.671-2.369,11.331-4.635,19.984L820.883-66.898z"/>
	<path fill="#FFFFFF" d="M946.48-12.097v-150.808h54.287v50.166h33.066v-50.166h54.184v150.808h-54.184V-65.25h-33.066v53.153
		H946.48z"/>
	<path fill="#FFFFFF" d="M1137.415-12.097v-150.808h68.193c19.778,0,34.885,4.362,45.325,13.083
		c10.438,8.722,15.657,21.289,15.657,37.702c0,10.713-2.626,19.538-7.88,26.474c-5.253,6.938-12.345,10.989-21.271,12.155
		l40.277,61.395h-60.776l-26.371-49.754v49.754H1137.415z M1190.569-124.069v29.461h8.447c5.15,0,9.116-1.252,11.897-3.76
		c2.781-2.506,4.172-6.094,4.172-10.765c0-4.806-1.391-8.498-4.172-11.074c-2.781-2.575-6.747-3.863-11.897-3.863H1190.569z"/>
	<path fill="#FFFFFF" d="M1309.968-12.097v-150.808h100.848v40.896h-47.694v14.524h43.264v38.629h-43.264v15.864h48.93v40.895
		H1309.968z"/>
</g>
</svg>
