<?xml version="1.0" encoding="utf-8"?>
<!-- Generator: Adobe Illustrator 16.0.0, SVG Export Plug-In . SVG Version: 6.00 Build 0)  -->
<!DOCTYPE svg PUBLIC "-//W3C//DTD SVG 1.1//EN" "http://www.w3.org/Graphics/SVG/1.1/DTD/svg11.dtd">
<svg version="1.1" id="Layer_3" xmlns="http://www.w3.org/2000/svg" xmlns:xlink="http://www.w3.org/1999/xlink" x="0px" y="0px"
	 width="354.331px" height="294.803px" viewBox="0 0 354.331 294.803" enable-background="new 0 0 354.331 294.803"
	 xml:space="preserve">
<rect display="none" fill="#F7941E" width="354.331" height="294.803"/>
<g id="Text" display="none">
	<g display="inline">
		<path fill="#FFFFFF" d="M38.789,103.869c2.238,1.774,4.302,3.125,6.192,4.051c1.891,0.926,3.543,1.39,4.958,1.39
			c1.26,0,2.295-0.373,3.105-1.119c0.811-0.746,1.215-1.685,1.215-2.816c0-1.337-1.363-3.292-4.089-5.864l-0.154-0.154
			c-4.707-4.347-7.729-7.717-9.067-10.108c-1.337-2.393-2.006-4.978-2.006-7.755c0-4.758,1.614-8.674,4.842-11.748
			c3.228-3.073,7.375-4.61,12.442-4.61c1.98,0,4.032,0.271,6.154,0.811c2.122,0.54,4.314,1.35,6.578,2.431v14.622
			c-1.878-1.491-3.64-2.617-5.286-3.376c-1.646-0.759-3.151-1.139-4.514-1.139c-1.184,0-2.135,0.315-2.855,0.945
			c-0.72,0.631-1.08,1.447-1.08,2.45c0,1.44,1.35,3.216,4.051,5.324l0.463,0.386c4.681,3.756,7.716,6.849,9.105,9.279
			c1.389,2.43,2.083,5.292,2.083,8.584c0,5.504-1.736,9.922-5.208,13.253c-3.472,3.331-8.077,4.996-13.812,4.996
			c-2.212,0-4.385-0.348-6.52-1.042c-2.135-0.694-4.334-1.774-6.598-3.241V103.869z"/>
		<path fill="#FFFFFF" d="M73.48,94.455c0-9.311,1.845-16.525,5.536-21.644c3.69-5.118,8.88-7.678,15.567-7.678
			c6.662,0,11.825,2.553,15.49,7.658c3.666,5.106,5.498,12.327,5.498,21.663c0,9.312-1.827,16.513-5.479,21.605
			c-3.652,5.093-8.822,7.64-15.51,7.64c-6.713,0-11.909-2.553-15.586-7.658C75.318,110.937,73.48,103.741,73.48,94.455z
			 M89.375,94.069c0,5.864,0.386,9.871,1.158,12.019c0.771,2.147,2.122,3.222,4.051,3.222c1.903,0,3.234-1.062,3.993-3.184
			c0.758-2.122,1.138-6.141,1.138-12.057c0-5.915-0.38-9.94-1.138-12.075c-0.759-2.135-2.09-3.203-3.993-3.203
			c-1.929,0-3.279,1.081-4.051,3.241C89.761,84.192,89.375,88.205,89.375,94.069z"/>
		<path fill="#FFFFFF" d="M117.125,122.581l4.013-56.328h18.75l4.9,29.707l4.899-29.707h18.712l4.013,56.328h-14.353l-1.196-39.893
			l-6.25,39.893h-11.69l-6.25-39.893l-1.234,39.893H117.125z"/>
		<path fill="#FFFFFF" d="M116.183,185.134l4.013-56.328h18.75l4.9,29.707l4.899-29.707h18.712l4.013,56.328h-14.353l-1.196-39.893
			l-6.25,39.893h-11.69l-6.25-39.893l-1.234,39.893H116.183z"/>
		<path fill="#FFFFFF" d="M175.249,185.134v-56.328h27.971v13.657h-12.153v7.176h10.957v13.195h-10.957v7.755h12.153v14.545H175.249
			z"/>
		<path fill="#FFFFFF" d="M208.091,185.134v-56.328h18.095c6.121,0,10.944,1.557,14.468,4.668c3.523,3.112,5.286,7.344,5.286,12.693
			c0,3.293-0.791,6.103-2.373,8.43c-1.582,2.328-3.955,4.187-7.118,5.575l11.15,24.962h-16.667l-7.099-21.798v21.798H208.091z
			 M223.832,140.495v13.427c2.135-0.052,3.69-0.611,4.668-1.679c0.977-1.066,1.466-2.745,1.466-5.034
			c0-2.238-0.463-3.916-1.389-5.035c-0.926-1.119-2.302-1.679-4.128-1.679H223.832z"/>
		<path fill="#FFFFFF" d="M116.183,249.413l4.013-56.328h18.75l4.9,29.707l4.899-29.707h18.712l4.013,56.328h-14.353l-1.196-39.893
			l-6.25,39.893h-11.69l-6.25-39.893l-1.234,39.893H116.183z"/>
		<path fill="#FFFFFF" d="M174.49,229.273v-36.188h15.703v37.693c0,1.646,0.295,2.861,0.887,3.646
			c0.591,0.784,1.505,1.176,2.739,1.176c1.26,0,2.186-0.392,2.778-1.176c0.591-0.785,0.887-2,0.887-3.646v-37.693h15.78v36.188
			c0,7.356-1.563,12.738-4.688,16.146s-8.044,5.112-14.757,5.112c-6.688,0-11.581-1.704-14.68-5.112
			C176.039,242.012,174.49,236.63,174.49,229.273z"/>
		<path fill="#FFFFFF" d="M216.917,230.701c2.238,1.774,4.302,3.125,6.192,4.051c1.891,0.926,3.543,1.39,4.958,1.39
			c1.26,0,2.295-0.373,3.105-1.119c0.811-0.746,1.215-1.685,1.215-2.816c0-1.337-1.363-3.292-4.089-5.864l-0.154-0.154
			c-4.707-4.347-7.729-7.717-9.067-10.108c-1.337-2.393-2.006-4.978-2.006-7.755c0-4.758,1.614-8.674,4.842-11.748
			c3.228-3.073,7.375-4.61,12.442-4.61c1.98,0,4.032,0.271,6.154,0.811c2.122,0.54,4.314,1.35,6.578,2.431v14.622
			c-1.878-1.491-3.64-2.617-5.286-3.376c-1.646-0.759-3.151-1.139-4.514-1.139c-1.184,0-2.135,0.315-2.855,0.945
			c-0.72,0.631-1.08,1.447-1.08,2.45c0,1.44,1.35,3.216,4.051,5.324l0.463,0.386c4.681,3.756,7.716,6.849,9.105,9.279
			c1.389,2.43,2.083,5.292,2.083,8.584c0,5.504-1.736,9.922-5.208,13.253c-3.472,3.331-8.077,4.996-13.812,4.996
			c-2.212,0-4.385-0.348-6.52-1.042c-2.135-0.694-4.334-1.774-6.598-3.241V230.701z"/>
		<path fill="#FFFFFF" d="M252.738,249.413v-56.328h15.741v56.328H252.738z"/>
		<path fill="#FFFFFF" d="M274.269,249.413v-56.328h15.818v23.534l8.604-23.534h16.127l-11.613,26.003l11.921,30.325h-17.014
			l-8.025-25.618v25.618H274.269z"/>
	</g>
	<g display="inline">
	</g>
	<g display="inline">
		<path fill="#FFFFFF" d="M56.488,52.509c0,1.086-0.2,2.104-0.598,3.052c-0.399,0.949-0.98,1.799-1.743,2.548
			c-0.77,0.742-1.65,1.314-2.64,1.717c-0.99,0.402-2.018,0.604-3.083,0.604c-1.08,0-2.113-0.201-3.099-0.604
			c-0.987-0.402-1.854-0.975-2.604-1.717c-0.777-0.749-1.366-1.602-1.769-2.558s-0.604-1.97-0.604-3.042
			c0-1.08,0.201-2.096,0.604-3.048s0.992-1.803,1.769-2.553c0.75-0.742,1.617-1.314,2.604-1.717c0.986-0.402,2.02-0.604,3.099-0.604
			c1.072,0,2.105,0.201,3.099,0.604s1.868,0.975,2.625,1.717c0.756,0.743,1.335,1.592,1.738,2.548
			C56.287,50.411,56.488,51.429,56.488,52.509z M48.424,56.943c1.141,0,2.084-0.42,2.831-1.259s1.119-1.897,1.119-3.176
			c0-1.266-0.378-2.32-1.135-3.166s-1.695-1.269-2.815-1.269c-1.142,0-2.085,0.421-2.831,1.263
			c-0.746,0.843-1.119,1.899-1.119,3.172c0,1.292,0.368,2.354,1.104,3.187C46.313,56.527,47.262,56.943,48.424,56.943z"/>
		<path fill="#FFFFFF" d="M59.911,60.026V44.929h4.135c1.705,0,2.896,0.055,3.573,0.165s1.26,0.299,1.748,0.567
			c0.557,0.309,0.981,0.724,1.273,1.242c0.292,0.52,0.438,1.119,0.438,1.8c0,0.859-0.218,1.542-0.655,2.047
			c-0.437,0.506-1.133,0.889-2.088,1.15c1.073,0.082,1.911,0.459,2.516,1.129s0.908,1.565,0.908,2.687
			c0,0.805-0.17,1.513-0.51,2.124c-0.34,0.612-0.827,1.087-1.459,1.424c-0.516,0.274-1.151,0.471-1.908,0.587
			c-0.756,0.117-1.994,0.176-3.713,0.176H59.911z M63.727,50.962h0.825c1.018,0,1.715-0.112,2.093-0.336
			c0.378-0.223,0.567-0.609,0.567-1.16c0-0.57-0.177-0.971-0.531-1.201s-1.043-0.346-2.067-0.346h-0.887V50.962z M63.727,56.943
			h1.444c0.976,0,1.667-0.122,2.073-0.366s0.608-0.651,0.608-1.223c0-0.632-0.186-1.074-0.557-1.325s-1.059-0.376-2.063-0.376
			h-1.506V56.943z"/>
		<path fill="#FFFFFF" d="M76.05,60.026V44.929h9.25v3.311h-5.239v2.619h4.939v3.238h-4.939v2.547H85.3v3.383H76.05z"/>
		<path fill="#FFFFFF" d="M90.029,60.026V44.929h4.3c1.684,0,2.858,0.077,3.522,0.232c0.663,0.154,1.235,0.414,1.717,0.778
			c0.543,0.412,0.961,0.938,1.253,1.578c0.292,0.639,0.438,1.344,0.438,2.113c0,1.169-0.287,2.119-0.861,2.852
			s-1.411,1.219-2.511,1.46l4.115,6.084h-4.651l-3.465-5.909v5.909H90.029z M93.886,52.065h0.763c0.887,0,1.535-0.151,1.944-0.454
			c0.409-0.303,0.614-0.777,0.614-1.423c0-0.757-0.191-1.295-0.573-1.614c-0.381-0.319-1.022-0.479-1.923-0.479h-0.825V52.065z"/>
		<path fill="#FFFFFF" d="M108.09,60.026V48.497h-3.382v-3.568h10.88v3.568h-3.383v11.529H108.09z"/>
		<path fill="#FFFFFF" d="M134.471,52.509c0,1.086-0.2,2.104-0.598,3.052c-0.399,0.949-0.98,1.799-1.743,2.548
			c-0.77,0.742-1.65,1.314-2.64,1.717c-0.99,0.402-2.018,0.604-3.083,0.604c-1.08,0-2.113-0.201-3.099-0.604
			c-0.987-0.402-1.854-0.975-2.604-1.717c-0.777-0.749-1.366-1.602-1.769-2.558s-0.604-1.97-0.604-3.042
			c0-1.08,0.201-2.096,0.604-3.048s0.992-1.803,1.769-2.553c0.75-0.742,1.617-1.314,2.604-1.717c0.986-0.402,2.02-0.604,3.099-0.604
			c1.072,0,2.105,0.201,3.099,0.604s1.868,0.975,2.625,1.717c0.756,0.743,1.335,1.592,1.738,2.548
			C134.27,50.411,134.471,51.429,134.471,52.509z M126.407,56.943c1.141,0,2.084-0.42,2.831-1.259s1.119-1.897,1.119-3.176
			c0-1.266-0.378-2.32-1.135-3.166s-1.695-1.269-2.815-1.269c-1.142,0-2.085,0.421-2.831,1.263
			c-0.746,0.843-1.119,1.899-1.119,3.172c0,1.292,0.368,2.354,1.104,3.187C124.296,56.527,125.245,56.943,126.407,56.943z
			 M122.9,41.401c0-0.392,0.149-0.733,0.448-1.025c0.299-0.293,0.648-0.438,1.047-0.438c0.413,0,0.76,0.143,1.042,0.428
			s0.423,0.631,0.423,1.036c0,0.434-0.138,0.791-0.413,1.073c-0.275,0.281-0.625,0.423-1.052,0.423
			c-0.413,0-0.765-0.145-1.057-0.434C123.046,42.175,122.9,41.821,122.9,41.401z M126.933,41.401c0-0.392,0.146-0.733,0.438-1.025
			c0.292-0.293,0.641-0.438,1.047-0.438s0.753,0.143,1.042,0.428c0.289,0.285,0.433,0.631,0.433,1.036
			c0,0.427-0.141,0.782-0.423,1.067c-0.282,0.286-0.632,0.429-1.052,0.429s-0.772-0.145-1.057-0.434S126.933,41.821,126.933,41.401z
			"/>
		<path fill="#FFFFFF" d="M138.726,60.026V44.929h3.97l5.703,7.766c0.11,0.158,0.29,0.476,0.541,0.954
			c0.251,0.478,0.528,1.046,0.831,1.706c-0.083-0.625-0.143-1.183-0.181-1.671c-0.038-0.487-0.057-0.921-0.057-1.299v-7.456h3.95
			v15.098h-3.95l-5.703-7.796c-0.117-0.158-0.301-0.477-0.552-0.954c-0.251-0.479-0.524-1.04-0.82-1.687
			c0.083,0.633,0.143,1.193,0.181,1.681c0.038,0.488,0.057,0.922,0.057,1.3v7.456H138.726z"/>
		<path fill="#FFFFFF" d="M158.527,60.026V44.929h9.25v3.311h-5.239v2.619h4.939v3.238h-4.939v2.547h5.239v3.383H158.527z"/>
	</g>
	<g display="inline">
		<g>
			<g>
				<path fill="#FFFFFF" stroke="#FFFFFF" stroke-width="0.25" stroke-miterlimit="10" d="M214.713,61.783
					c0,0.609-0.193,1.227-0.581,1.854c-0.387,0.627-0.872,1.112-1.452,1.455c-0.716,0.423-1.409,0.634-2.074,0.634
					c-0.738,0-1.348-0.266-1.828-0.795c-0.336-0.373-0.506-0.816-0.506-1.331c0-0.575,0.197-1.161,0.593-1.763
					c0.381-0.575,0.859-1.028,1.434-1.355c0.718-0.417,1.428-0.623,2.131-0.623c0.811,0,1.429,0.279,1.852,0.839V42.348h0.453
					c0,0.328,0.08,0.724,0.236,1.191c0.309,0.897,0.842,1.704,1.602,2.42c1.777,1.677,3.046,3.139,3.805,4.389
					c0.674,1.109,1.011,2.391,1.011,3.846c0,0.553-0.047,1.064-0.141,1.538c-0.437,2.189-1.189,3.934-2.256,5.226l-0.129-0.132
					c0.321-0.371,0.653-0.911,0.994-1.611c0.606-1.263,0.909-2.53,0.909-3.806c0-1.009-0.196-1.99-0.591-2.935
					c-0.472-1.135-1.238-2.129-2.294-3c-1.058-0.866-2.113-1.375-3.167-1.515V61.783z"/>
			</g>
			<g>
				<path fill="#FFFFFF" stroke="#FFFFFF" stroke-width="0.25" stroke-miterlimit="10" d="M206.361,51.428
					c0.093,0.424,0.139,0.876,0.139,1.356c0,1.281-0.333,2.407-0.999,3.373c-0.357,0.523-0.976,1.153-1.849,1.894
					c-1.284,1.072-1.935,1.62-1.958,1.644c-1.009,0.961-1.601,2.107-1.772,3.439v0.063h-0.011h-0.323V43.764
					c0-0.61,0.193-1.228,0.581-1.856c0.387-0.624,0.872-1.111,1.451-1.454c0.717-0.424,1.409-0.637,2.077-0.637
					c0.736,0,1.345,0.268,1.826,0.799c0.335,0.372,0.505,0.815,0.505,1.331c0,0.574-0.197,1.159-0.591,1.764
					c-0.38,0.574-0.857,1.023-1.43,1.353c-0.695,0.409-1.393,0.613-2.096,0.613c-0.845,0-1.507-0.303-1.988-0.914v6.924
					c1.727-0.014,3.236-0.647,4.526-1.904c0.931-0.901,1.395-1.806,1.395-2.715c0-0.568-0.323-1.421-0.977-2.563l0.162-0.129
					c0.522,0.817,0.859,1.477,1.009,1.979c0.18,0.603,0.27,1.146,0.27,1.634c0,0.646-0.149,1.261-0.452,1.848
					C206.057,50.305,206.225,50.835,206.361,51.428z M205.673,50.169c-0.379,0.626-1,1.299-1.86,2.02
					c-0.702,0.59-1.408,1.181-2.118,1.776c-1.009,0.969-1.601,2.115-1.772,3.442c2.372-0.21,4.167-1.247,5.386-3.109
					c0.414-0.638,0.623-1.444,0.623-2.418C205.932,51.256,205.844,50.687,205.673,50.169z"/>
			</g>
		</g>
	</g>
	<g display="inline">
		<path fill="#FFFFFF" d="M207.736,32.739c11.25,0,20.403,9.152,20.403,20.401c0,11.251-9.153,20.404-20.403,20.404
			s-20.403-9.153-20.403-20.404C187.333,41.892,196.486,32.739,207.736,32.739 M207.736,28.739
			c-13.478,0-24.403,10.925-24.403,24.401c0,13.475,10.925,24.404,24.403,24.404s24.403-10.93,24.403-24.404
			C232.139,39.664,221.213,28.739,207.736,28.739L207.736,28.739z"/>
	</g>
</g>
<g id="Standard">
	<g>
		<path fill="#FFFFFF" d="M38.789,103.869c2.238,1.774,4.302,3.125,6.192,4.051c1.891,0.926,3.543,1.39,4.958,1.39
			c1.26,0,2.295-0.373,3.105-1.119c0.811-0.746,1.215-1.685,1.215-2.816c0-1.337-1.363-3.292-4.089-5.864l-0.154-0.154
			c-4.707-4.347-7.729-7.717-9.067-10.108c-1.337-2.393-2.006-4.978-2.006-7.755c0-4.758,1.614-8.674,4.842-11.748
			c3.228-3.073,7.375-4.61,12.442-4.61c1.98,0,4.032,0.271,6.154,0.811c2.122,0.54,4.314,1.35,6.578,2.431v14.622
			c-1.878-1.491-3.64-2.617-5.286-3.376c-1.646-0.759-3.151-1.139-4.514-1.139c-1.184,0-2.135,0.315-2.855,0.945
			c-0.72,0.631-1.08,1.447-1.08,2.45c0,1.44,1.35,3.216,4.051,5.324l0.463,0.386c4.681,3.756,7.716,6.849,9.105,9.279
			c1.389,2.43,2.083,5.292,2.083,8.584c0,5.504-1.736,9.922-5.208,13.253c-3.472,3.331-8.077,4.996-13.812,4.996
			c-2.212,0-4.385-0.348-6.52-1.042c-2.135-0.694-4.334-1.774-6.598-3.241V103.869z"/>
		<path fill="#FFFFFF" d="M73.48,94.455c0-9.311,1.845-16.525,5.536-21.644c3.69-5.118,8.88-7.678,15.567-7.678
			c6.662,0,11.825,2.553,15.49,7.658c3.666,5.106,5.498,12.327,5.498,21.663c0,9.312-1.827,16.513-5.479,21.605
			c-3.652,5.093-8.822,7.64-15.51,7.64c-6.713,0-11.909-2.553-15.586-7.658C75.318,110.937,73.48,103.741,73.48,94.455z
			 M89.375,94.069c0,5.864,0.386,9.871,1.158,12.019c0.771,2.147,2.122,3.222,4.051,3.222c1.903,0,3.234-1.062,3.993-3.184
			c0.758-2.122,1.138-6.141,1.138-12.057c0-5.915-0.38-9.94-1.138-12.075c-0.759-2.135-2.09-3.203-3.993-3.203
			c-1.929,0-3.279,1.081-4.051,3.241C89.761,84.192,89.375,88.205,89.375,94.069z"/>
		<path fill="#FFFFFF" d="M117.125,122.581l4.013-56.328h18.75l4.9,29.707l4.899-29.707h18.712l4.013,56.328h-14.353l-1.196-39.893
			l-6.25,39.893h-11.69l-6.25-39.893l-1.234,39.893H117.125z"/>
		<path fill="#FFFFFF" d="M116.183,185.134l4.013-56.328h18.75l4.9,29.707l4.899-29.707h18.712l4.013,56.328h-14.353l-1.196-39.893
			l-6.25,39.893h-11.69l-6.25-39.893l-1.234,39.893H116.183z"/>
		<path fill="#FFFFFF" d="M175.249,185.134v-56.328h27.971v13.657h-12.153v7.176h10.957v13.195h-10.957v7.755h12.153v14.545H175.249
			z"/>
		<path fill="#FFFFFF" d="M208.092,185.134v-56.328h18.095c6.121,0,10.944,1.557,14.468,4.668c3.523,3.112,5.286,7.344,5.286,12.693
			c0,3.293-0.791,6.103-2.373,8.43c-1.582,2.328-3.955,4.187-7.118,5.575l11.15,24.962h-16.667l-7.099-21.798v21.798H208.092z
			 M223.833,140.495v13.427c2.135-0.052,3.69-0.611,4.668-1.679c0.977-1.066,1.466-2.745,1.466-5.034
			c0-2.238-0.463-3.916-1.389-5.035c-0.926-1.119-2.302-1.679-4.128-1.679H223.833z"/>
		<path fill="#FFFFFF" d="M116.183,249.413l4.013-56.328h18.75l4.9,29.707l4.899-29.707h18.712l4.013,56.328h-14.353l-1.196-39.893
			l-6.25,39.893h-11.69l-6.25-39.893l-1.234,39.893H116.183z"/>
		<path fill="#FFFFFF" d="M174.49,229.273v-36.188h15.703v37.693c0,1.646,0.295,2.861,0.887,3.646
			c0.591,0.784,1.505,1.176,2.739,1.176c1.26,0,2.186-0.392,2.778-1.176c0.591-0.785,0.887-2,0.887-3.646v-37.693h15.78v36.188
			c0,7.356-1.563,12.738-4.688,16.146s-8.044,5.112-14.757,5.112c-6.688,0-11.581-1.704-14.68-5.112
			C176.04,242.012,174.49,236.63,174.49,229.273z"/>
		<path fill="#FFFFFF" d="M216.918,230.701c2.238,1.774,4.302,3.125,6.192,4.051c1.891,0.926,3.543,1.39,4.958,1.39
			c1.26,0,2.295-0.373,3.105-1.119c0.811-0.746,1.215-1.685,1.215-2.816c0-1.337-1.363-3.292-4.089-5.864l-0.154-0.154
			c-4.707-4.347-7.729-7.717-9.067-10.108c-1.337-2.393-2.006-4.978-2.006-7.755c0-4.758,1.614-8.674,4.842-11.748
			c3.228-3.073,7.375-4.61,12.442-4.61c1.98,0,4.032,0.271,6.154,0.811c2.122,0.54,4.314,1.35,6.578,2.431v14.622
			c-1.878-1.491-3.64-2.617-5.286-3.376c-1.646-0.759-3.151-1.139-4.514-1.139c-1.184,0-2.135,0.315-2.855,0.945
			c-0.72,0.631-1.08,1.447-1.08,2.45c0,1.44,1.35,3.216,4.051,5.324l0.463,0.386c4.681,3.756,7.716,6.849,9.105,9.279
			c1.389,2.43,2.083,5.292,2.083,8.584c0,5.504-1.736,9.922-5.208,13.253c-3.472,3.331-8.077,4.996-13.812,4.996
			c-2.212,0-4.385-0.348-6.52-1.042c-2.135-0.694-4.334-1.774-6.598-3.241V230.701z"/>
		<path fill="#FFFFFF" d="M252.739,249.413v-56.328h15.741v56.328H252.739z"/>
		<path fill="#FFFFFF" d="M274.269,249.413v-56.328h15.818v23.534l8.604-23.534h16.127l-11.613,26.003l11.921,30.325h-17.014
			l-8.025-25.618v25.618H274.269z"/>
	</g>
	<g>
		<path fill="#FFFFFF" d="M56.488,52.509c0,1.086-0.2,2.104-0.598,3.052c-0.399,0.949-0.98,1.799-1.743,2.548
			c-0.77,0.742-1.65,1.314-2.64,1.717c-0.99,0.402-2.018,0.604-3.083,0.604c-1.08,0-2.113-0.201-3.099-0.604
			c-0.987-0.402-1.854-0.975-2.604-1.717c-0.777-0.749-1.366-1.602-1.769-2.558s-0.604-1.97-0.604-3.042
			c0-1.08,0.201-2.096,0.604-3.048s0.992-1.803,1.769-2.553c0.75-0.742,1.617-1.314,2.604-1.717c0.986-0.402,2.02-0.604,3.099-0.604
			c1.072,0,2.105,0.201,3.099,0.604s1.868,0.975,2.625,1.717c0.756,0.743,1.335,1.592,1.738,2.548
			C56.287,50.411,56.488,51.429,56.488,52.509z M48.424,56.943c1.141,0,2.084-0.42,2.831-1.259s1.119-1.897,1.119-3.176
			c0-1.266-0.378-2.32-1.135-3.166s-1.695-1.269-2.815-1.269c-1.142,0-2.085,0.421-2.831,1.263
			c-0.746,0.843-1.119,1.899-1.119,3.172c0,1.292,0.368,2.354,1.104,3.187C46.313,56.527,47.262,56.943,48.424,56.943z"/>
		<path fill="#FFFFFF" d="M59.911,60.026V44.929h4.135c1.705,0,2.896,0.055,3.573,0.165s1.26,0.299,1.748,0.567
			c0.557,0.309,0.981,0.724,1.273,1.242c0.292,0.52,0.438,1.119,0.438,1.8c0,0.859-0.218,1.542-0.655,2.047
			c-0.437,0.506-1.133,0.889-2.088,1.15c1.073,0.082,1.911,0.459,2.516,1.129s0.908,1.565,0.908,2.687
			c0,0.805-0.17,1.513-0.51,2.124c-0.34,0.612-0.827,1.087-1.459,1.424c-0.516,0.274-1.151,0.471-1.908,0.587
			c-0.756,0.117-1.994,0.176-3.713,0.176H59.911z M63.727,50.962h0.825c1.018,0,1.715-0.112,2.093-0.336
			c0.378-0.223,0.567-0.609,0.567-1.16c0-0.57-0.177-0.971-0.531-1.201s-1.043-0.346-2.067-0.346h-0.887V50.962z M63.727,56.943
			h1.444c0.976,0,1.667-0.122,2.073-0.366s0.608-0.651,0.608-1.223c0-0.632-0.186-1.074-0.557-1.325s-1.059-0.376-2.063-0.376
			h-1.506V56.943z"/>
		<path fill="#FFFFFF" d="M76.05,60.026V44.929h9.25v3.311h-5.239v2.619h4.939v3.238h-4.939v2.547H85.3v3.383H76.05z"/>
		<path fill="#FFFFFF" d="M90.029,60.026V44.929h4.3c1.684,0,2.858,0.077,3.522,0.232c0.663,0.154,1.235,0.414,1.717,0.778
			c0.543,0.412,0.961,0.938,1.253,1.578c0.292,0.639,0.438,1.344,0.438,2.113c0,1.169-0.287,2.119-0.861,2.852
			s-1.411,1.219-2.511,1.46l4.115,6.084h-4.651l-3.465-5.909v5.909H90.029z M93.886,52.065h0.763c0.887,0,1.535-0.151,1.944-0.454
			c0.409-0.303,0.614-0.777,0.614-1.423c0-0.757-0.191-1.295-0.573-1.614c-0.381-0.319-1.022-0.479-1.923-0.479h-0.825V52.065z"/>
		<path fill="#FFFFFF" d="M108.09,60.026V48.497h-3.382v-3.568h10.88v3.568h-3.383v11.529H108.09z"/>
		<path fill="#FFFFFF" d="M134.471,52.509c0,1.086-0.2,2.104-0.598,3.052c-0.399,0.949-0.98,1.799-1.743,2.548
			c-0.77,0.742-1.65,1.314-2.64,1.717c-0.99,0.402-2.018,0.604-3.083,0.604c-1.08,0-2.113-0.201-3.099-0.604
			c-0.987-0.402-1.854-0.975-2.604-1.717c-0.777-0.749-1.366-1.602-1.769-2.558s-0.604-1.97-0.604-3.042
			c0-1.08,0.201-2.096,0.604-3.048s0.992-1.803,1.769-2.553c0.75-0.742,1.617-1.314,2.604-1.717c0.986-0.402,2.02-0.604,3.099-0.604
			c1.072,0,2.105,0.201,3.099,0.604s1.868,0.975,2.625,1.717c0.756,0.743,1.335,1.592,1.738,2.548
			C134.27,50.411,134.471,51.429,134.471,52.509z M126.407,56.943c1.141,0,2.084-0.42,2.831-1.259s1.119-1.897,1.119-3.176
			c0-1.266-0.378-2.32-1.135-3.166s-1.695-1.269-2.815-1.269c-1.142,0-2.085,0.421-2.831,1.263
			c-0.746,0.843-1.119,1.899-1.119,3.172c0,1.292,0.368,2.354,1.104,3.187C124.296,56.527,125.245,56.943,126.407,56.943z
			 M122.9,41.401c0-0.392,0.149-0.733,0.448-1.025c0.299-0.293,0.648-0.438,1.047-0.438c0.413,0,0.76,0.143,1.042,0.428
			s0.423,0.631,0.423,1.036c0,0.434-0.138,0.791-0.413,1.073c-0.275,0.281-0.625,0.423-1.052,0.423
			c-0.413,0-0.765-0.145-1.057-0.434C123.046,42.175,122.9,41.821,122.9,41.401z M126.933,41.401c0-0.392,0.146-0.733,0.438-1.025
			c0.292-0.293,0.641-0.438,1.047-0.438s0.753,0.143,1.042,0.428c0.289,0.285,0.433,0.631,0.433,1.036
			c0,0.427-0.141,0.782-0.423,1.067c-0.282,0.286-0.632,0.429-1.052,0.429s-0.772-0.145-1.057-0.434S126.933,41.821,126.933,41.401z
			"/>
		<path fill="#FFFFFF" d="M138.726,60.026V44.929h3.97l5.703,7.766c0.11,0.158,0.29,0.476,0.541,0.954
			c0.251,0.478,0.528,1.046,0.831,1.706c-0.083-0.625-0.143-1.183-0.181-1.671c-0.038-0.487-0.057-0.921-0.057-1.299v-7.456h3.95
			v15.098h-3.95l-5.703-7.796c-0.117-0.158-0.301-0.477-0.552-0.954c-0.251-0.479-0.524-1.04-0.82-1.687
			c0.083,0.633,0.143,1.193,0.181,1.681c0.038,0.488,0.057,0.922,0.057,1.3v7.456H138.726z"/>
		<path fill="#FFFFFF" d="M158.527,60.026V44.929h9.25v3.311h-5.239v2.619h4.939v3.238h-4.939v2.547h5.239v3.383H158.527z"/>
	</g>
	<g>
		<g>
			<g>
				<g>
					<path fill="#FFFFFF" d="M214.713,61.783c0,0.609-0.193,1.227-0.581,1.854c-0.387,0.627-0.871,1.112-1.452,1.455
						c-0.716,0.423-1.409,0.634-2.074,0.634c-0.738,0-1.348-0.266-1.828-0.795c-0.336-0.373-0.506-0.816-0.506-1.331
						c0-0.575,0.197-1.161,0.593-1.763c0.381-0.575,0.859-1.028,1.434-1.355c0.718-0.417,1.428-0.623,2.131-0.623
						c0.811,0,1.429,0.279,1.852,0.839V42.348h0.452c0,0.328,0.079,0.724,0.235,1.191c0.31,0.897,0.843,1.704,1.603,2.42
						c1.776,1.677,3.046,3.139,3.806,4.389c0.674,1.109,1.011,2.391,1.011,3.846c0,0.553-0.047,1.064-0.142,1.538
						c-0.437,2.189-1.189,3.934-2.256,5.226l-0.129-0.132c0.32-0.371,0.652-0.911,0.993-1.611c0.606-1.263,0.909-2.53,0.909-3.806
						c0-1.009-0.196-1.99-0.591-2.935c-0.472-1.135-1.238-2.129-2.294-3c-1.059-0.866-2.113-1.375-3.167-1.515V61.783z"/>
					<path fill="#FFFFFF" d="M210.607,65.852c-0.771,0-1.417-0.281-1.921-0.836c-0.357-0.396-0.538-0.872-0.538-1.415
						c0-0.597,0.207-1.213,0.613-1.831c0.392-0.592,0.889-1.061,1.476-1.396c0.73-0.425,1.468-0.64,2.193-0.64
						c0.717,0,1.296,0.213,1.727,0.633V42.223h0.702v0.125c0,0.31,0.077,0.697,0.229,1.151c0.301,0.875,0.83,1.672,1.57,2.369
						c1.78,1.68,3.067,3.165,3.827,4.415c0.683,1.124,1.029,2.439,1.029,3.91c0,0.559-0.048,1.085-0.144,1.563
						c-0.439,2.201-1.207,3.978-2.282,5.28L219,61.144l-0.306-0.313l0.075-0.087c0.311-0.359,0.639-0.893,0.976-1.584
						c0.595-1.238,0.896-2.501,0.896-3.751c0-0.992-0.195-1.963-0.581-2.887c-0.457-1.099-1.217-2.092-2.258-2.951
						c-0.993-0.813-1.989-1.306-2.962-1.467v13.68c0,0.63-0.202,1.275-0.6,1.92c-0.396,0.642-0.898,1.146-1.495,1.497
						C212.012,65.633,211.293,65.852,210.607,65.852z M212.431,59.984c-0.68,0-1.376,0.204-2.068,0.606
						c-0.554,0.315-1.022,0.758-1.393,1.316c-0.379,0.576-0.572,1.146-0.572,1.693c0,0.479,0.159,0.898,0.474,1.247
						c0.454,0.5,1.038,0.754,1.735,0.754c0.641,0,1.317-0.207,2.01-0.616c0.561-0.331,1.035-0.807,1.409-1.413
						c0.373-0.604,0.563-1.206,0.563-1.789V47.816l0.142,0.019c1.065,0.142,2.152,0.66,3.229,1.542
						c1.074,0.886,1.857,1.911,2.33,3.049c0.398,0.953,0.601,1.957,0.601,2.982c0,0.988-0.183,1.983-0.544,2.968
						c0.324-0.801,0.584-1.691,0.779-2.669c0.092-0.462,0.139-0.971,0.139-1.514c0-1.425-0.334-2.696-0.993-3.781
						c-0.748-1.229-2.021-2.697-3.785-4.362c-0.77-0.725-1.319-1.556-1.635-2.47c-0.144-0.43-0.222-0.794-0.239-1.107h-0.206v18.599
						l-0.225-0.298C213.782,60.242,213.208,59.984,212.431,59.984z"/>
				</g>
			</g>
			<g>
				<g>
					<path fill="#FFFFFF" d="M206.361,51.428c0.093,0.424,0.139,0.876,0.139,1.356c0,1.281-0.333,2.407-0.999,3.373
						c-0.357,0.523-0.976,1.153-1.849,1.894c-1.284,1.072-1.935,1.62-1.958,1.644c-1.009,0.961-1.601,2.107-1.772,3.439v0.063
						h-0.011h-0.323V43.764c0-0.61,0.193-1.228,0.581-1.856c0.387-0.624,0.872-1.111,1.451-1.454
						c0.717-0.424,1.409-0.637,2.077-0.637c0.736,0,1.345,0.268,1.826,0.799c0.335,0.372,0.505,0.815,0.505,1.331
						c0,0.574-0.197,1.159-0.591,1.764c-0.38,0.574-0.857,1.023-1.43,1.353c-0.695,0.409-1.393,0.613-2.096,0.613
						c-0.845,0-1.507-0.303-1.988-0.914v6.924c1.727-0.014,3.236-0.647,4.526-1.904c0.931-0.901,1.395-1.806,1.395-2.715
						c0-0.568-0.323-1.421-0.977-2.563l0.162-0.129c0.522,0.817,0.859,1.477,1.009,1.979c0.18,0.603,0.27,1.146,0.27,1.634
						c0,0.646-0.149,1.261-0.452,1.848C206.057,50.305,206.225,50.835,206.361,51.428z M205.673,50.169
						c-0.379,0.626-1,1.299-1.86,2.02c-0.702,0.59-1.408,1.181-2.118,1.776c-1.009,0.969-1.601,2.115-1.772,3.442
						c2.372-0.21,4.167-1.247,5.386-3.109c0.414-0.638,0.623-1.444,0.623-2.418C205.932,51.256,205.844,50.687,205.673,50.169z"/>
					<path fill="#FFFFFF" d="M200.047,63.322h-0.584V43.764c0-0.63,0.202-1.276,0.599-1.922c0.398-0.642,0.9-1.146,1.494-1.496
						c0.734-0.435,1.454-0.654,2.141-0.654c0.769,0,1.414,0.282,1.918,0.84c0.356,0.396,0.537,0.871,0.537,1.415
						c0,0.593-0.206,1.209-0.612,1.832c-0.125,0.188-0.261,0.365-0.407,0.528l0,0.001c0.535,0.837,0.87,1.495,1.023,2.01
						c0.183,0.611,0.275,1.173,0.275,1.67c0,0.646-0.148,1.268-0.439,1.853c0.194,0.462,0.358,0.986,0.49,1.56
						c0.094,0.433,0.142,0.897,0.142,1.385c0,1.304-0.344,2.462-1.021,3.444c-0.362,0.53-0.974,1.157-1.871,1.918
						c-1.371,1.145-1.918,1.606-1.953,1.638c-0.984,0.938-1.568,2.07-1.734,3.365L200.047,63.322z M199.713,63.072h0.092
						c0.185-1.344,0.791-2.505,1.802-3.469c0.037-0.036,1.082-0.911,1.964-1.648c0.866-0.735,1.481-1.363,1.826-1.868
						c0.648-0.94,0.977-2.051,0.977-3.303c0-0.469-0.046-0.917-0.136-1.33c-0.133-0.58-0.301-1.108-0.498-1.57l-0.023-0.054
						l0.027-0.053c0.291-0.563,0.438-1.166,0.438-1.79c0-0.473-0.089-1.011-0.265-1.598c-0.093-0.312-0.263-0.691-0.508-1.136
						c0.375,0.766,0.559,1.362,0.559,1.813c0,0.94-0.482,1.884-1.433,2.805c-1.307,1.272-2.858,1.926-4.612,1.939l-0.126,0.001V44.4
						l0.223,0.284c0.458,0.583,1.076,0.866,1.89,0.866c0.677,0,1.361-0.2,2.033-0.596c0.556-0.319,1.023-0.762,1.39-1.314
						c0.383-0.589,0.57-1.143,0.57-1.694c0-0.479-0.159-0.899-0.473-1.247c-0.455-0.503-1.038-0.758-1.733-0.758
						c-0.641,0-1.318,0.208-2.014,0.619c-0.559,0.33-1.032,0.806-1.408,1.412c-0.373,0.605-0.562,1.208-0.562,1.791V63.072z
						 M200.047,45.089v6.47c1.636-0.043,3.086-0.671,4.314-1.867c0.901-0.872,1.357-1.755,1.357-2.625
						c0-0.534-0.309-1.35-0.917-2.426c-0.225,0.202-0.469,0.379-0.733,0.53c-0.709,0.418-1.436,0.63-2.158,0.63
						C201.151,45.801,200.526,45.562,200.047,45.089z M199.778,57.546l0.02-0.154c0.174-1.348,0.783-2.531,1.81-3.517l2.124-1.782
						c0.848-0.71,1.465-1.379,1.834-1.988l0.141-0.232l0.085,0.258c0.176,0.532,0.265,1.121,0.265,1.75
						c0,0.992-0.216,1.829-0.643,2.486c-1.236,1.888-3.08,2.953-5.48,3.165L199.778,57.546z M205.63,50.465
						c-0.39,0.568-0.973,1.18-1.738,1.819l-2.118,1.776c-0.938,0.901-1.514,1.981-1.706,3.207c2.244-0.237,3.971-1.259,5.136-3.038
						c0.4-0.616,0.603-1.406,0.603-2.35C205.807,51.378,205.748,50.903,205.63,50.465z"/>
				</g>
			</g>
		</g>
	</g>
	<g>
		<path fill="#FFFFFF" d="M207.736,33.739c10.698,0,19.402,8.704,19.402,19.403c0,10.698-8.704,19.402-19.402,19.402
			c-10.699,0-19.403-8.704-19.403-19.402C188.333,42.443,197.037,33.739,207.736,33.739 M207.736,28.739
			c-13.478,0-24.403,10.926-24.403,24.403c0,13.477,10.925,24.402,24.403,24.402c13.477,0,24.402-10.926,24.402-24.402
			C232.138,39.665,221.213,28.739,207.736,28.739L207.736,28.739z"/>
	</g>
</g>
<g id="Layer_2">
</g>
<g id="klein" display="none">
	<g display="inline">
		<path fill="#FFFFFF" d="M38.997,103.869c2.238,1.774,4.302,3.125,6.192,4.051c1.891,0.926,3.543,1.39,4.958,1.39
			c1.26,0,2.295-0.373,3.105-1.119c0.811-0.746,1.215-1.685,1.215-2.816c0-1.337-1.363-3.292-4.089-5.864l-0.154-0.154
			c-4.707-4.347-7.729-7.717-9.067-10.108c-1.337-2.393-2.006-4.978-2.006-7.755c0-4.758,1.614-8.674,4.842-11.748
			c3.228-3.073,7.375-4.61,12.442-4.61c1.98,0,4.032,0.271,6.154,0.811c2.122,0.54,4.314,1.35,6.578,2.431v14.622
			c-1.878-1.491-3.64-2.617-5.286-3.376c-1.646-0.759-3.151-1.139-4.514-1.139c-1.184,0-2.135,0.315-2.855,0.945
			c-0.72,0.631-1.08,1.447-1.08,2.45c0,1.44,1.35,3.216,4.051,5.324l0.463,0.386c4.681,3.756,7.716,6.849,9.105,9.279
			c1.389,2.43,2.083,5.292,2.083,8.584c0,5.504-1.736,9.922-5.208,13.253c-3.472,3.331-8.077,4.996-13.812,4.996
			c-2.212,0-4.385-0.348-6.52-1.042c-2.135-0.694-4.334-1.774-6.598-3.241V103.869z"/>
		<path fill="#FFFFFF" d="M73.688,94.455c0-9.311,1.845-16.525,5.536-21.644c3.69-5.118,8.88-7.678,15.567-7.678
			c6.662,0,11.825,2.553,15.49,7.658c3.666,5.106,5.498,12.327,5.498,21.663c0,9.312-1.827,16.513-5.479,21.605
			c-3.652,5.093-8.822,7.64-15.51,7.64c-6.713,0-11.909-2.553-15.586-7.658C75.526,110.937,73.688,103.741,73.688,94.455z
			 M89.583,94.069c0,5.864,0.386,9.871,1.158,12.019c0.771,2.147,2.122,3.222,4.051,3.222c1.903,0,3.234-1.062,3.993-3.184
			c0.758-2.122,1.138-6.141,1.138-12.057c0-5.915-0.38-9.94-1.138-12.075c-0.759-2.135-2.09-3.203-3.993-3.203
			c-1.929,0-3.279,1.081-4.051,3.241C89.968,84.192,89.583,88.205,89.583,94.069z"/>
		<path fill="#FFFFFF" d="M117.332,122.581l4.013-56.328h18.75l4.9,29.707l4.899-29.707h18.712l4.013,56.328h-14.353l-1.196-39.893
			l-6.25,39.893h-11.69l-6.25-39.893l-1.234,39.893H117.332z"/>
		<path fill="#FFFFFF" d="M116.391,185.134l4.013-56.328h18.75l4.9,29.707l4.899-29.707h18.712l4.013,56.328h-14.353l-1.196-39.893
			l-6.25,39.893h-11.69l-6.25-39.893l-1.234,39.893H116.391z"/>
		<path fill="#FFFFFF" d="M175.457,185.134v-56.328h27.971v13.657h-12.153v7.176h10.957v13.195h-10.957v7.755h12.153v14.545H175.457
			z"/>
		<path fill="#FFFFFF" d="M208.299,185.134v-56.328h18.095c6.121,0,10.943,1.557,14.467,4.668c3.523,3.112,5.286,7.344,5.286,12.693
			c0,3.293-0.791,6.103-2.372,8.43c-1.582,2.328-3.955,4.187-7.119,5.575l11.15,24.962H231.14l-7.099-21.798v21.798H208.299z
			 M224.041,140.495v13.427c2.135-0.052,3.689-0.611,4.668-1.679c0.977-1.066,1.466-2.745,1.466-5.034
			c0-2.238-0.463-3.916-1.389-5.035c-0.927-1.119-2.302-1.679-4.128-1.679H224.041z"/>
		<path fill="#FFFFFF" d="M116.391,249.413l4.013-56.328h18.75l4.9,29.707l4.899-29.707h18.712l4.013,56.328h-14.353l-1.196-39.893
			l-6.25,39.893h-11.69l-6.25-39.893l-1.234,39.893H116.391z"/>
		<path fill="#FFFFFF" d="M174.698,229.273v-36.188H190.4v37.693c0,1.646,0.295,2.861,0.887,3.646
			c0.591,0.784,1.505,1.176,2.739,1.176c1.26,0,2.186-0.392,2.778-1.176c0.591-0.785,0.887-2,0.887-3.646v-37.693h15.78v36.188
			c0,7.356-1.563,12.738-4.688,16.146s-8.044,5.112-14.757,5.112c-6.688,0-11.581-1.704-14.68-5.112
			C176.247,242.012,174.698,236.63,174.698,229.273z"/>
		<path fill="#FFFFFF" d="M217.125,230.701c2.238,1.774,4.303,3.125,6.193,4.051s3.543,1.39,4.957,1.39
			c1.26,0,2.296-0.373,3.105-1.119c0.811-0.746,1.216-1.685,1.216-2.816c0-1.337-1.363-3.292-4.089-5.864l-0.154-0.154
			c-4.707-4.347-7.73-7.717-9.067-10.108c-1.337-2.393-2.006-4.978-2.006-7.755c0-4.758,1.614-8.674,4.842-11.748
			c3.228-3.073,7.375-4.61,12.442-4.61c1.98,0,4.031,0.271,6.154,0.811c2.121,0.54,4.314,1.35,6.578,2.431v14.622
			c-1.879-1.491-3.641-2.617-5.286-3.376c-1.646-0.759-3.151-1.139-4.515-1.139c-1.184,0-2.135,0.315-2.854,0.945
			c-0.72,0.631-1.08,1.447-1.08,2.45c0,1.44,1.351,3.216,4.051,5.324l0.463,0.386c4.681,3.756,7.716,6.849,9.105,9.279
			c1.389,2.43,2.083,5.292,2.083,8.584c0,5.504-1.736,9.922-5.209,13.253c-3.472,3.331-8.076,4.996-13.812,4.996
			c-2.212,0-4.386-0.348-6.521-1.042s-4.334-1.774-6.598-3.241V230.701z"/>
		<path fill="#FFFFFF" d="M252.946,249.413v-56.328h15.741v56.328H252.946z"/>
		<path fill="#FFFFFF" d="M274.477,249.413v-56.328h15.818v23.534l8.604-23.534h16.127l-11.613,26.003l11.922,30.325H298.32
			l-8.025-25.618v25.618H274.477z"/>
	</g>
	<g display="inline">
		<path fill="#FFFFFF" d="M207.943,39.63c9.656,0,17.512,7.856,17.512,17.513s-7.856,17.512-17.512,17.512
			s-17.512-7.855-17.512-17.512S198.287,39.63,207.943,39.63 M207.943,31.63c-14.09,0-25.512,11.423-25.512,25.513
			c0,14.089,11.422,25.512,25.512,25.512c14.09,0,25.512-11.423,25.512-25.512C233.456,43.053,222.034,31.63,207.943,31.63
			L207.943,31.63z"/>
	</g>
	<rect x="40.556" y="44.588" fill="#FFFFFF" width="127.13" height="9.509"/>
</g>
<g>
</g>
<g>
</g>
<g>
</g>
<g>
</g>
<g>
</g>
<g>
</g>
</svg>
