<?xml version="1.0" encoding="utf-8"?>
<!-- Generator: Adobe Illustrator 16.0.0, SVG Export Plug-In . SVG Version: 6.00 Build 0)  -->
<!DOCTYPE svg PUBLIC "-//W3C//DTD SVG 1.1//EN" "http://www.w3.org/Graphics/SVG/1.1/DTD/svg11.dtd">
<svg version="1.1" id="Layer_1" xmlns="http://www.w3.org/2000/svg" xmlns:xlink="http://www.w3.org/1999/xlink" x="0px" y="0px"
	 width="42px" height="42px" viewBox="0 0 42 42" enable-background="new 0 0 42 42" xml:space="preserve">
<g>
	<g>
		<path fill="#FFFEFA" d="M21,40.5C10.248,40.5,1.5,31.752,1.5,21C1.5,10.248,10.248,1.5,21,1.5c10.752,0,19.5,8.748,19.5,19.5
			C40.5,31.752,31.752,40.5,21,40.5z"/>
		<path fill="#F6921E" d="M21,3c9.925,0,18,8.075,18,18c0,9.925-8.075,18-18,18c-9.925,0-18-8.075-18-18C3,11.075,11.075,3,21,3
			 M21,0C9.403,0,0,9.403,0,21c0,11.598,9.403,21,21,21c11.598,0,21-9.402,21-21C42,9.403,32.598,0,21,0L21,0z"/>
	</g>
	
		<line fill="none" stroke="#F6921E" stroke-width="4" stroke-linecap="round" stroke-miterlimit="10" x1="21" y1="9" x2="21" y2="33"/>
	
		<line fill="none" stroke="#F6921E" stroke-width="4" stroke-linecap="round" stroke-miterlimit="10" x1="9" y1="21" x2="33" y2="21"/>
</g>
</svg>
